<svg width="19" height="21" viewBox="0 0 19 21" fill="none" xmlns="http://www.w3.org/2000/svg">
<path d="M10.6783 0.5C6.08224 0.5 2.35597 4.32753 2.35597 9.0493C2.35597 10.727 2.82621 12.292 3.63893 13.6125C3.63296 13.6151 3.6271 13.6175 3.62111 13.6203L0 17.3398L3.07602 20.5L6.82755 16.6452C6.82643 16.6398 6.82492 16.6343 6.82376 16.6289C7.97615 17.2487 9.28745 17.5993 10.6783 17.5993C15.2744 17.5993 19 13.7711 19 9.04933C19 4.32753 15.2743 0.5 10.6783 0.5ZM10.6783 4.29795C13.2325 4.29795 15.3025 6.42527 15.3025 9.0493C15.3025 11.6733 13.2325 13.8006 10.6783 13.8006C8.12414 13.8006 6.05344 11.6733 6.05344 9.0493C6.05344 6.42527 8.12412 4.29795 10.6783 4.29795Z" fill="#8AC6FE"/>
</svg>
